BBC Proms 2012 - 12. Beethoven Symphonies 5 and 6

Two familiar iconic masterpieces that embrace and extend the musical possibilites of their day frame two exploratory 20th-century miniatures from Pierre Boulez. MΓÇÜmoriale was written in the memory of a young flautist colleague, while Messagesquisse spotlights the virtuosity of the orchestra's cellos.

In his 'Pastoral' Symphony Beethoven leads us through an evocation of the Austrian countryside to symphonic euphoria. During the Second World War the Fifth's opening rhythmic figure became synonymous with 'V for victory' (Morse code's three dots and a dash), the call sign used by the BBC to occupied Europe.

Beethoven
Symphony No. 6 in F major 'Pastoral' (40 mins)

Pierre Boulez
MΓÇÜmoriale ('. explosante-fixe .' Originel) (8 mins)

Pierre Boulez
Messagesquisse (8 mins)

INTERVAL

Beethoven
Symphony No. 5 in C minor (30 mins)

Guy Eshed flute
Hassan Moataz El Molla cello, Proms debut artist
West-Eastern Divan Orchestra
Daniel Barenboim conductor

Video
ID                                       : 1
Format                                   : AVC
Format/Info                              : Advanced Video Codec
Format profile                           : Main@L3.0
Format settings, CABAC                   : Yes
Format settings, ReFrames                : 4 frames
Codec ID                                 : avc1
Codec ID/Info                            : Advanced Video Coding
Duration                                 : 2h 1mn
Bit rate mode                            : Constant
Bit rate                                 : 1 404 Kbps
Width                                    : 832 pixels
Height                                   : 468 pixels
Display aspect ratio                     : 16:9
Frame rate mode                          : Constant
Frame rate                               : 25.000 fps
Standard                                 : PAL
Color space                              : YUV
Chroma subsampling                       : 4:2:0
Bit depth                                : 8 bits
Scan type                                : Progressive
Bits/(Pixel*Frame)                       : 0.144
Stream size                              : 1.19 GiB (93%)

Audio
ID                                       : 2
Format                                   : AAC
Format/Info                              : Advanced Audio Codec
Format profile                           : HE-AAC / LC
Codec ID                                 : 40
Duration                                 : 2h 1mn
Bit rate mode                            : Constant
Bit rate                                 : 96.0 Kbps
Channel(s)                               : 2 channels
Channel positions                        : Front: L R
Sampling rate                            : 48.0 KHz / 24.0 KHz
Compression mode                         : Lossy
Stream size                              : 82.3 MiB (6%)
